<svg xmlns="http://www.w3.org/2000/svg" width="20" height="21" fill="none"><g clip-path="url(#a)"><path fill="#1D2130" d="M6.292 19.12c7.545 0 11.673-6.253 11.673-11.673 0-.176-.004-.356-.012-.531A8.332 8.332 0 0 0 20 4.79a8.09 8.09 0 0 1-2.355.645 4.125 4.125 0 0 0 1.804-2.27 8.247 8.247 0 0 1-2.605.996A4.108 4.108 0 0 0 9.85 7.904 11.654 11.654 0 0 1 1.394 3.62a4.108 4.108 0 0 0 1.27 5.475 4.108 4.108 0 0 1-1.86-.512v.051a4.102 4.102 0 0 0 3.293 4.024 4.078 4.078 0 0 1-1.851.07 4.111 4.111 0 0 0 3.831 2.852A8.23 8.23 0 0 1 0 17.277a11.64 11.64 0 0 0 6.292 1.843Z"/></g><defs><clipPath id="a"><path fill="#fff" d="M0 .995h20v20H0z"/></clipPath></defs></svg>