<svg xmlns="http://www.w3.org/2000/svg" width="138" height="32" fill="none"><g fill="#1D2130" opacity=".6"><path d="M33.648 7.635h3.166v15.317h-3.166V7.635ZM38.586 17.705c0-1.102.326-2.18.936-3.095a5.544 5.544 0 0 1 2.491-2.05 5.515 5.515 0 0 1 6.04 1.221 5.59 5.59 0 0 1 1.18 6.075 5.559 5.559 0 0 1-2.053 2.492 5.52 5.52 0 0 1-3.086.922 5.445 5.445 0 0 1-3.918-1.62 5.492 5.492 0 0 1-1.59-3.945Zm7.935 0a2.423 2.423 0 0 0-1.528-2.187 2.396 2.396 0 0 0-2.6.564 2.42 2.42 0 0 0-.494 2.626 2.398 2.398 0 0 0 2.216 1.478 2.333 2.333 0 0 0 1.73-.719 2.355 2.355 0 0 0 .655-1.762h.02ZM62.126 12.458v9.975c0 3.519-2.743 5.013-5.518 5.013a5.256 5.256 0 0 1-2.835-.564 5.286 5.286 0 0 1-2.114-1.98l2.67-1.547a2.386 2.386 0 0 0 2.385 1.325 2.1 2.1 0 0 0 1.708-.565 2.12 2.12 0 0 0 .655-1.682v-.965a3.725 3.725 0 0 1-3.05 1.357c-1.399 0-2.74-.559-3.73-1.552a5.313 5.313 0 0 1-1.545-3.748c0-1.406.556-2.754 1.545-3.748a5.264 5.264 0 0 1 3.73-1.552 3.71 3.71 0 0 1 3.05 1.357v-1.06l3.049-.064Zm-3.05 5.035a2.553 2.553 0 0 0-.374-1.441 2.521 2.521 0 0 0-3.908-.502 2.548 2.548 0 0 0-.597 2.784 2.524 2.524 0 0 0 2.348 1.597 2.352 2.352 0 0 0 1.805-.654 2.375 2.375 0 0 0 .727-1.784ZM63.91 17.705c0-1.101.324-2.177.933-3.093a5.545 5.545 0 0 1 2.488-2.05 5.515 5.515 0 0 1 6.038 1.212 5.588 5.588 0 0 1 1.194 6.068 5.56 5.56 0 0 1-2.045 2.495 5.522 5.522 0 0 1-3.08.933 5.454 5.454 0 0 1-3.93-1.615 5.504 5.504 0 0 1-1.599-3.95Zm7.934 0a2.424 2.424 0 0 0-1.531-2.188 2.395 2.395 0 0 0-2.601.569 2.42 2.42 0 0 0-.487 2.629 2.398 2.398 0 0 0 2.223 1.47 2.334 2.334 0 0 0 1.73-.718 2.355 2.355 0 0 0 .655-1.762h.01ZM76.433 9.649a1.893 1.893 0 0 1 1.16-1.743 1.87 1.87 0 0 1 2.046.409 1.89 1.89 0 0 1-1.328 3.22 1.895 1.895 0 0 1-1.322-.558 1.912 1.912 0 0 1-.556-1.328Zm.306 2.809h3.166v10.494h-3.166V12.458ZM93.452 17.705a5.323 5.323 0 0 1-1.364 3.834 5.277 5.277 0 0 1-3.669 1.731 3.909 3.909 0 0 1-3.165-1.283v5.184H82.09V12.458h3.165v.986a3.913 3.913 0 0 1 3.165-1.272 5.256 5.256 0 0 1 3.657 1.72 5.306 5.306 0 0 1 1.376 3.813Zm-3.165 0a2.51 2.51 0 0 0-.45-1.373 2.479 2.479 0 0 0-3.825-.306 2.506 2.506 0 0 0-.506 2.721 2.5 2.5 0 0 0 .922 1.11c.41.272.89.415 1.38.413a2.374 2.374 0 0 0 1.811-.724 2.396 2.396 0 0 0 .668-1.841ZM103.085 19.804c0 2.417-2.11 3.445-4.347 3.445a4.562 4.562 0 0 1-2.63-.558 4.592 4.592 0 0 1-1.864-1.944l2.722-1.547a1.704 1.704 0 0 0 1.762 1.24c.749 0 1.129-.233 1.129-.657 0-1.156-5.139-.541-5.139-4.177 0-2.29 1.92-3.434 4.094-3.434a4.583 4.583 0 0 1 4.136 2.237l-2.722 1.441a1.543 1.543 0 0 0-1.403-.922c-.549 0-.876.212-.876.583 0 1.208 5.138.413 5.138 4.293ZM114.554 12.458v10.494h-3.165v-.986a3.593 3.593 0 0 1-2.975 1.304c-2.111 0-3.915-1.516-3.915-4.346v-6.466h3.166v5.989a1.742 1.742 0 0 0 1.091 1.792c.234.091.484.131.734.116 1.139 0 1.941-.678 1.941-2.12v-5.777h3.123ZM132.491 16.507v6.445h-3.165v-6.17c0-1.06-.496-1.716-1.498-1.716-1.003 0-1.636.731-1.636 1.971v5.915h-3.165v-6.17c0-1.06-.496-1.716-1.498-1.716-1.003 0-1.636.731-1.636 1.971v5.915h-3.165V12.458h3.165v.965a3.233 3.233 0 0 1 2.807-1.251 3.08 3.08 0 0 1 2.733 1.378 3.44 3.44 0 0 1 3.028-1.378c2.469 0 4.03 1.717 4.03 4.335ZM14.794 4.879V.374H.655v30.952h14.139v-4.505a10.895 10.895 0 0 1-7.722-3.213 10.997 10.997 0 0 1-3.199-7.758c0-2.91 1.15-5.7 3.199-7.758a10.895 10.895 0 0 1 7.722-3.213ZM14.794 4.879v21.942c2.896 0 5.673-1.156 7.721-3.213a10.997 10.997 0 0 0 3.199-7.758c0-2.91-1.15-5.7-3.199-7.758a10.895 10.895 0 0 0-7.721-3.213ZM135.15 12.394a2.327 2.327 0 0 0 2.322-2.332 2.327 2.327 0 0 0-2.322-2.332 2.326 2.326 0 0 0-2.321 2.332 2.326 2.326 0 0 0 2.321 2.332Z"/></g></svg>