<svg xmlns="http://www.w3.org/2000/svg" width="127" height="30" fill="none"><g fill="#1D2130" opacity=".6"><path d="M37.063 8.635h3.166V21.37h-3.166V8.635Zm4.421 7.927c0-3.15 1.942-5.03 4.938-5.03 2.997 0 4.938 1.88 4.938 5.03 0 3.15-1.9 5.04-4.938 5.04-3.039 0-4.938-1.837-4.938-5.04Zm6.7 0c0-1.732-.686-2.75-1.762-2.75s-1.751 1.05-1.751 2.75c0 1.701.664 2.73 1.751 2.73 1.087 0 1.762-.966 1.762-2.72v-.01Zm4.368 5.429h3.04c.144.32.388.584.696.754.308.17.663.237 1.012.19 1.203 0 1.836-.65 1.836-1.595v-1.764h-.063c-.252.54-.661.993-1.175 1.3a3.007 3.007 0 0 1-1.706.422c-2.31 0-3.84-1.754-3.84-4.767 0-3.014 1.456-4.914 3.883-4.914a3.04 3.04 0 0 1 1.746.47c.521.33.928.81 1.166 1.378V11.71h3.165v9.555c0 2.3-2.036 3.728-5.043 3.728-2.796 0-4.537-1.25-4.717-2.993v-.01Zm6.595-5.44c0-1.532-.707-2.498-1.825-2.498-1.119 0-1.805.955-1.805 2.499 0 1.543.675 2.415 1.804 2.415 1.13 0 1.826-.85 1.826-2.405v-.01Zm4.358 0c0-3.15 1.94-5.029 4.937-5.029 2.997 0 4.949 1.88 4.949 5.03 0 3.15-1.9 5.04-4.949 5.04s-4.937-1.827-4.937-5.03v-.01Zm6.7 0c0-1.732-.686-2.75-1.763-2.75-1.076 0-1.698 1.06-1.698 2.772 0 1.711.664 2.73 1.74 2.73 1.077 0 1.72-.977 1.72-2.73v-.021Zm4.389-7.129a1.601 1.601 0 0 1 .96-1.51 1.622 1.622 0 0 1 1.769.307 1.604 1.604 0 0 1-1.083 2.768 1.549 1.549 0 0 1-1.162-.414 1.533 1.533 0 0 1-.484-1.13v-.02Zm0 2.31h3.165v9.64h-3.165v-9.64Zm14.655 4.82c0 3.15-1.403 4.945-3.809 4.945a3.029 3.029 0 0 1-1.76-.43 3.007 3.007 0 0 1-1.194-1.355h-.063v4.746h-3.166V11.711h3.166v1.722h.063a3.017 3.017 0 0 1 1.172-1.39 3.04 3.04 0 0 1 1.761-.468c2.427.042 3.872 1.848 3.872 4.998l-.042-.021Zm-3.165 0c0-1.533-.707-2.51-1.815-2.51s-1.815.987-1.825 2.51c-.01 1.522.717 2.499 1.825 2.499s1.815-.956 1.815-2.478v-.021Zm8.6-5.04c2.626 0 4.22 1.239 4.293 3.223h-2.88c0-.682-.57-1.113-1.446-1.113-.875 0-1.266.336-1.266.83 0 .493.349.65 1.055.798l2.026.41c1.931.409 2.754 1.186 2.754 2.645 0 1.995-1.825 3.276-4.516 3.276-2.69 0-4.452-1.28-4.59-3.244h3.05c.095.714.664 1.134 1.593 1.134.928 0 1.35-.305 1.35-.809s-.295-.609-1.055-.766l-1.825-.389c-1.889-.388-2.88-1.386-2.88-2.856.02-1.89 1.72-3.118 4.336-3.118v-.021Zm15.098 9.838h-3.05v-1.795h-.063a2.735 2.735 0 0 1-1.048 1.495 2.761 2.761 0 0 1-1.758.51 3.377 3.377 0 0 1-2.603-1.007 3.346 3.346 0 0 1-.943-2.615V11.71h3.166v5.502c0 1.145.591 1.754 1.572 1.754a1.62 1.62 0 0 0 1.548-1.14c.067-.22.086-.45.056-.677v-5.439h3.165l-.042 9.64Zm1.53-9.639h3.059v1.859h.064a2.79 2.79 0 0 1 1.028-1.486 2.815 2.815 0 0 1 1.726-.551 2.53 2.53 0 0 1 1.757.527c.499.389.832.95.933 1.573h.063a2.964 2.964 0 0 1 1.127-1.557 2.986 2.986 0 0 1 1.849-.543 3.083 3.083 0 0 1 2.316.936 3.044 3.044 0 0 1 .849 2.34v6.562h-3.165V15.65c0-1.05-.475-1.533-1.361-1.533a1.386 1.386 0 0 0-1.333.972 1.362 1.362 0 0 0-.049.582v5.701h-3.007v-5.764c0-.966-.475-1.491-1.34-1.491a1.419 1.419 0 0 0-1.35.987c-.059.19-.078.39-.054.588v5.68h-3.165l.053-9.66ZM28.21 9.212a13.9 13.9 0 0 0-2.11-3.38 14.265 14.265 0 0 0-4.669-3.72 14.331 14.331 0 0 0-16.65 2.831 14.196 14.196 0 0 0-3.164 5.05A14.143 14.143 0 0 0 2.5 21.598a14.225 14.225 0 0 0 3.892 4.52 13.828 13.828 0 0 0 3.377 1.92 14.188 14.188 0 0 0 5.349 1.05 14.343 14.343 0 0 0 10.093-4.177 14.203 14.203 0 0 0 4.183-10.05c.002-1.944-.4-3.867-1.182-5.649ZM15.107 3.511c1.648 0 3.276.358 4.77 1.05a4.648 4.648 0 0 1-1.14.325 6.057 6.057 0 0 0-3.409 1.7A6.005 6.005 0 0 0 13.62 9.98a3.144 3.144 0 0 1-.932 1.897c-.521.507-1.202.82-1.928.885a6.056 6.056 0 0 0-3.409 1.7 6.006 6.006 0 0 0-1.708 3.393 3.049 3.049 0 0 1-.834 1.827 11.293 11.293 0 0 1 .675-10.92 11.373 11.373 0 0 1 4.136-3.869 11.439 11.439 0 0 1 5.498-1.402l-.01.02Zm-8.725 18.7c.126-.115.253-.22.38-.346a5.744 5.744 0 0 0 1.709-3.392 3.06 3.06 0 0 1 .918-1.91 2.992 2.992 0 0 1 1.91-.904 6.057 6.057 0 0 0 3.408-1.7 6.005 6.005 0 0 0 1.709-3.392 3.06 3.06 0 0 1 .918-2.006 3.035 3.035 0 0 1 1.93-.871 5.794 5.794 0 0 0 3.166-1.502 11.05 11.05 0 0 1 2.49 2.92.904.904 0 0 1-.137.146 3.034 3.034 0 0 1-1.91.924 6.036 6.036 0 0 0-3.413 1.697 5.985 5.985 0 0 0-1.704 3.396 3.143 3.143 0 0 1-.915 1.91 3.171 3.171 0 0 1-1.924.904 6.089 6.089 0 0 0-3.422 1.697 6.038 6.038 0 0 0-1.726 3.395 3.287 3.287 0 0 1-.517 1.439 11.477 11.477 0 0 1-2.87-2.405Zm8.725 4.053a11.491 11.491 0 0 1-3.165-.44c.352-.654.581-1.366.675-2.1a3.144 3.144 0 0 1 .911-1.909 3.172 3.172 0 0 1 1.917-.906 6.057 6.057 0 0 0 3.415-1.697 6.006 6.006 0 0 0 1.713-3.395 3.143 3.143 0 0 1 .91-1.908 3.172 3.172 0 0 1 1.918-.906 6.042 6.042 0 0 0 2.7-1.05 11.307 11.307 0 0 1-1.98 9.814 11.405 11.405 0 0 1-3.989 3.263 11.462 11.462 0 0 1-5.025 1.182v.052Z"/></g></svg>