<svg xmlns="http://www.w3.org/2000/svg" width="134" height="32" fill="none"><g fill="#1D2130" opacity=".6"><path d="M38.158 9.823h3.387v13.65h-3.387V9.823Zm4.737 8.516c0-3.381 2.11-5.408 5.276-5.408 3.165 0 5.275 2.027 5.275 5.408 0 3.38-2.036 5.428-5.275 5.428-3.24 0-5.276-1.974-5.276-5.428Zm7.196 0c0-1.859-.728-2.95-1.889-2.95-1.16 0-1.878 1.05-1.878 2.95 0 1.9.718 2.94 1.878 2.94 1.161 0 1.91-1.04 1.91-2.93l-.02-.01Zm4.706 5.838h3.27a1.758 1.758 0 0 0 1.836 1.05c1.298 0 1.974-.693 1.974-1.722v-1.89h.01a3.23 3.23 0 0 1-1.296 1.407 3.252 3.252 0 0 1-1.87.43c-2.479 0-4.125-1.88-4.125-5.113 0-3.234 1.573-5.25 4.22-5.25a3.252 3.252 0 0 1 1.9.491c.567.356 1.01.877 1.266 1.493h-.095v-1.9h3.356V23.4c0 2.467-2.195 4.01-5.424 4.01-2.933-.01-4.811-1.343-5.001-3.223l-.021-.01Zm7.09-5.838c0-1.649-.76-2.688-1.962-2.688-1.203 0-1.942 1.05-1.942 2.688 0 1.638.728 2.604 1.942 2.604 1.213 0 1.962-.893 1.962-2.604Zm4.695 0c0-3.381 2.11-5.408 5.276-5.408 3.165 0 5.276 2.027 5.276 5.408 0 3.38-2.047 5.428-5.276 5.428-3.229 0-5.254-1.974-5.254-5.428h-.022Zm7.196 0c0-1.859-.738-2.95-1.888-2.95s-1.878 1.05-1.878 2.95c0 1.9.717 2.94 1.878 2.94 1.16 0 1.91-1.04 1.91-2.93l-.022-.01Zm4.727-7.655a1.716 1.716 0 0 1 1.016-1.642 1.738 1.738 0 0 1 1.91.325 1.72 1.72 0 0 1 .41 1.885 1.724 1.724 0 0 1-1.605 1.08 1.673 1.673 0 0 1-1.573-.999 1.653 1.653 0 0 1-.137-.638l-.02-.01Zm0 2.478h3.43v10.353h-3.377l-.053-10.353ZM94.27 18.34c0 3.37-1.52 5.323-4.105 5.323a3.25 3.25 0 0 1-1.886-.465A3.228 3.228 0 0 1 87 21.74h-.063v5.103h-3.387v-13.65h3.366v1.848h.063c.257-.616.7-1.139 1.266-1.495a3.272 3.272 0 0 1 1.9-.5c2.658-.021 4.188 1.921 4.188 5.302l-.063-.01Zm-3.45 0c0-1.638-.77-2.699-1.963-2.699-1.192 0-1.941 1.05-1.952 2.699-.01 1.648.76 2.688 1.952 2.688s2.026-.977 2.026-2.678l-.064-.01Zm9.232-5.418c2.838 0 4.6 1.333 4.621 3.475h-3.091c0-.745-.623-1.207-1.551-1.207-.929 0-1.372.357-1.372.892 0 .536.39.704 1.171.861l2.174.441c2.11.441 2.954 1.281 2.954 2.846 0 2.1-1.952 3.528-4.854 3.528-2.901 0-4.79-1.386-4.927-3.497h3.281c.096.767.707 1.218 1.699 1.218.992 0 1.456-.315 1.456-.871 0-.557-.316-.651-1.129-.82l-1.962-.409c-2.037-.43-3.102-1.49-3.102-3.076.063-2.058 1.836-3.37 4.695-3.37l-.063-.011Zm16.248 10.584h-3.281v-1.943h-.063a2.965 2.965 0 0 1-1.134 1.606 2.988 2.988 0 0 1-1.894.547 3.634 3.634 0 0 1-2.74-1.117 3.599 3.599 0 0 1-.985-2.779v-6.646h3.387v5.922c0 1.218.644 1.88 1.699 1.88a1.738 1.738 0 0 0 1.301-.603 1.712 1.712 0 0 0 .397-1.372v-5.827h3.377l-.064 10.332Zm1.636-10.343h3.292v1.995h.074a3 3 0 0 1 1.108-1.595 3.026 3.026 0 0 1 1.857-.589 2.71 2.71 0 0 1 1.872.54 2.69 2.69 0 0 1 1.019 1.655h.147a3.154 3.154 0 0 1 1.208-1.633 3.179 3.179 0 0 1 1.958-.562 3.3 3.3 0 0 1 2.495 1 3.277 3.277 0 0 1 .913 2.518v7.024h-3.408v-6.163c0-1.05-.496-1.638-1.456-1.638a1.479 1.479 0 0 0-1.438 1.043 1.46 1.46 0 0 0-.05.626v6.132h-3.229V17.32c0-1.05-.517-1.606-1.445-1.606a1.517 1.517 0 0 0-1.14.504c-.143.16-.25.349-.314.553-.063.205-.082.42-.055.633v6.111h-3.387l-.021-10.353ZM31.458 10.716c0-2.09-.634-4.131-1.82-5.856a10.416 10.416 0 0 0-4.823-3.812A10.472 10.472 0 0 0 18.67.611c-2.045.474-3.9 1.55-5.32 3.09H.185V31.36h27.802V18.433a10.366 10.366 0 0 0 2.563-3.49c.598-1.33.908-2.77.909-4.227Zm-5.35 0a5.044 5.044 0 0 1-.852 2.814 5.08 5.08 0 0 1-2.28 1.869 5.108 5.108 0 0 1-5.546-1.09 5.037 5.037 0 0 1-1.107-5.517 5.066 5.066 0 0 1 1.873-2.273 5.103 5.103 0 0 1 6.419.625 5.049 5.049 0 0 1 1.493 3.572Zm-3.471 15.32H5.534V9.025h5.212a9.975 9.975 0 0 0-.159 1.69 10.37 10.37 0 0 0 3.06 7.34 10.471 10.471 0 0 0 7.376 3.044c.54-.003 1.08-.048 1.614-.136v5.071Z"/></g></svg>