<svg xmlns="http://www.w3.org/2000/svg" width="375" height="375" fill="none"><path fill="#BEF3C0" d="M187.5 0a187.498 187.498 0 0 1 172.071 261.983 187.5 187.5 0 0 1-81.765 89.837l-42.866-77.998a98.501 98.501 0 0 0 47.966-110.811 98.498 98.498 0 0 0-95.406-74.01V0Z"/><path fill="#fff" d="M231.413 179.454v5.324h1.848v2.574h-1.848v4.798c0 .468.116.819.347 1.053.231.234.577.351 1.039.351h1.328v3.042h-2.31c-.923 0-2.078-.175-2.887-.936-.808-.76-1.154-1.755-1.154-3.159v-5.207h-1.675v-2.574h1.675v-5.266h3.637Zm-10.797 17.376c-1.675 0-3.119-.585-4.1-1.638-1.04-1.053-1.502-2.457-1.502-4.095v-.41c0-1.813.462-3.276 1.386-4.446.924-1.112 2.252-1.697 3.984-1.697 1.56 0 2.83.468 3.696 1.404.924.995 1.328 2.282 1.328 3.92v1.931h-6.64v.058c.057.644.346 1.054.75 1.463.404.41.982.585 1.617.585.693 0 1.213-.058 1.617-.175.404-.117.981-.293 1.559-.585l.866 2.281c-.52.41-1.155.702-1.963.995-.808.292-1.732.409-2.598.409Zm-.289-9.478c-.52 0-.924.176-1.155.586a3.916 3.916 0 0 0-.462 1.521l.058.058h3.118v-.292c0-.644-.116-1.053-.347-1.346-.346-.409-.693-.527-1.212-.527Zm-11.895 9.478c-1.675 0-3.119-.585-4.1-1.638-.981-1.053-1.501-2.457-1.501-4.095v-.41c0-1.813.462-3.276 1.385-4.446.924-1.112 2.253-1.697 3.985-1.697 1.559 0 2.829.468 3.695 1.404.866.936 1.328 2.282 1.328 3.92v1.931h-6.64v.058c.058.644.346 1.054.751 1.463.404.41.981.585 1.616.585.693 0 1.213-.058 1.617-.175.405-.117.982-.293 1.559-.585l.866 2.281c-.519.41-1.155.702-1.963.995-.75.292-1.674.409-2.598.409Zm-.231-9.478c-.52 0-.924.176-1.155.586a3.916 3.916 0 0 0-.462 1.521l.058.058h3.118v-.292c0-.644-.116-1.053-.347-1.346-.346-.409-.692-.527-1.212-.527Zm-10.798 4.213 1.27-6.904h3.291l-2.656 11.877h-3.06l-1.905-6.319h-.058l-1.905 6.319h-3.061l-2.714-11.818h3.349l1.27 6.962h.058l1.848-6.962h2.31l1.963 6.845Zm-15.302 1.638c0-.292-.173-.585-.519-.819-.347-.234-.924-.468-1.791-.644-1.328-.292-2.367-.702-3.06-1.228-.693-.585-1.039-1.346-1.039-2.34 0-1.054.462-1.931 1.27-2.692.866-.76 2.021-1.053 3.465-1.053 1.501 0 2.771.351 3.637 1.053.924.702 1.329 1.58 1.271 2.75v.059h-3.465c0-.468-.115-.82-.346-1.054-.231-.234-.636-.351-1.097-.351-.404 0-.693.117-.982.351-.289.234-.404.469-.404.82s.173.585.462.819c.288.234.924.409 1.79.585 1.386.292 2.483.702 3.118 1.228.693.585 1.039 1.346 1.039 2.399s-.462 1.931-1.386 2.633c-.923.702-2.136 1.053-3.637 1.053-1.559 0-2.83-.41-3.754-1.229-.923-.819-1.328-1.696-1.27-2.749v-.059h3.291c0 .585.174.995.52 1.17.347.176.809.41 1.328.41.52 0 .866-.117 1.097-.293.347-.175.462-.468.462-.819Zm-15.706-8.542.116 1.638c.404-.585.866-1.053 1.386-1.345a3.398 3.398 0 0 1 1.847-.527c1.097 0 2.021.41 2.656 1.112.636.702.982 1.93.982 3.569v7.43h-3.522v-7.372c0-.702-.116-1.111-.404-1.404-.289-.293-.693-.41-1.213-.41a2.37 2.37 0 0 0-.924.176c-.289.117-.52.293-.693.527v8.541h-3.58V184.72h3.349v-.059Zm-5.543-2.223h-3.638v-2.984h3.638v2.984Zm0 14.158h-3.638V184.72h3.638v11.876Zm-11.606 0v-9.361h-1.675v-2.574h1.675v-1.228c0-1.346.404-2.399 1.155-3.16.808-.76 2.021-.936 2.887-.936h2.309v2.984h-1.328c-.462 0-.808.117-1.039.351-.231.234-.347.585-.347 1.053v.878h2.252v2.574h-2.252v9.302h-3.637v.117Zm-6.929-16.147c0-3.569 1.847-3.862 4.965-3.862v2.809c-1.443 0-2.021.234-2.021 1.111v4.622c0 1.053.058 2.165-.808 2.867.866.702.808 1.755.808 2.867v4.622c0 .936.578 1.111 2.021 1.111v2.809c-3.118 0-4.965-.293-4.965-3.862v-4.68c0-.761 0-1.58-1.444-1.58v-2.457c1.444 0 1.444-.878 1.444-1.58v-4.797Z"/><path fill="#AC94F1" d="M277.822 351.811a187.505 187.505 0 0 1-207.561-17.985A187.503 187.503 0 0 1 7.447 135.181l85.466 24.835a98.497 98.497 0 0 0 86.084 125.615 98.497 98.497 0 0 0 55.951-11.814l42.874 77.994Z"/><path fill="#FFF0CA" d="M7.338 135.558a187.498 187.498 0 0 1 56.539-89.032l58.68 66.917a98.502 98.502 0 0 0-29.7 46.77L7.337 135.558Z"/><path fill="#F9CF64" d="M62.912 47.379a187.5 187.5 0 0 1 91.261-44.393l15.819 87.584a98.498 98.498 0 0 0-47.941 23.321l-59.14-66.513Z"/><path fill="#F38FBF" d="M153.259 3.153a187.498 187.498 0 0 1 38.5-3.105l-2.022 88.979a98.506 98.506 0 0 0-20.225 1.63L153.259 3.154Z"/></svg>