<svg xmlns="http://www.w3.org/2000/svg" width="436" height="89" fill="none"><path fill="#525560" d="M54.828 53.132h5.39v1.227H53.32V42.984h1.508v10.148Zm6.492-3.078c0-.828.162-1.573.485-2.234.328-.662.78-1.172 1.36-1.531.582-.36 1.247-.54 1.991-.54 1.151 0 2.081.399 2.79 1.196.713.797 1.07 1.857 1.07 3.18v.101c0 .823-.16 1.563-.477 2.219a3.56 3.56 0 0 1-1.352 1.523c-.583.365-1.255.547-2.015.547-1.146 0-2.076-.398-2.79-1.195-.707-.797-1.062-1.852-1.062-3.164v-.102Zm1.453.172c0 .938.217 1.69.649 2.258.437.568 1.02.851 1.75.851.734 0 1.318-.286 1.75-.859.432-.578.648-1.385.648-2.422 0-.927-.221-1.677-.664-2.25-.437-.578-1.02-.867-1.75-.867-.713 0-1.289.284-1.726.852-.438.567-.657 1.38-.657 2.437Zm12.141-3.023a4.339 4.339 0 0 0-.71-.055c-.949 0-1.592.404-1.93 1.21v6h-1.446v-8.452h1.406l.024.976c.474-.755 1.146-1.133 2.015-1.133.282 0 .495.037.641.11v1.344Zm4.688 7.312c-1.146 0-2.079-.375-2.797-1.125-.72-.755-1.078-1.763-1.078-3.023V50.1c0-.838.158-1.586.476-2.242.323-.662.771-1.177 1.344-1.547a3.38 3.38 0 0 1 1.875-.563c1.099 0 1.953.362 2.562 1.086.61.724.914 1.76.914 3.11v.601h-5.726c.02.834.263 1.508.726 2.024.47.51 1.063.765 1.782.765.51 0 .942-.104 1.297-.312.354-.208.664-.484.93-.828l.882.687c-.708 1.089-1.77 1.633-3.187 1.633Zm-.18-7.578c-.584 0-1.073.214-1.469.64-.396.422-.64 1.016-.734 1.782h4.234v-.11c-.041-.734-.24-1.302-.594-1.703-.354-.406-.833-.609-1.437-.609Zm6.516-1.031.039.937c.62-.729 1.455-1.094 2.507-1.094 1.183 0 1.987.454 2.414 1.36a3.213 3.213 0 0 1 1.094-.985c.453-.25.987-.375 1.602-.375 1.854 0 2.797.982 2.828 2.946v5.664h-1.445V48.78c0-.604-.139-1.055-.415-1.352-.275-.302-.74-.453-1.39-.453-.537 0-.982.162-1.336.484-.354.318-.56.748-.617 1.29v5.609h-1.453v-5.54c0-1.228-.602-1.843-1.805-1.843-.948 0-1.596.404-1.945 1.211v6.172H84.57v-8.453h1.368Zm18.21 8.453h-1.445v-8.453h1.445v8.453Zm-1.562-10.695a.87.87 0 0 1 .211-.594c.146-.162.359-.242.641-.242.281 0 .494.08.64.242.146.161.219.36.219.594 0 .234-.073.43-.219.585-.146.157-.359.235-.64.235-.282 0-.495-.078-.641-.235a.841.841 0 0 1-.211-.585Zm11.023 6.562c0 1.287-.294 2.323-.882 3.11-.589.786-1.386 1.18-2.391 1.18-1.026 0-1.833-.326-2.422-.977v4.07h-1.445V45.906h1.32l.07.937c.589-.729 1.407-1.094 2.453-1.094 1.016 0 1.818.383 2.407 1.149.593.766.89 1.83.89 3.195v.133Zm-1.445-.164c0-.953-.203-1.706-.609-2.258-.407-.552-.964-.828-1.672-.828-.875 0-1.531.388-1.969 1.164v4.04c.432.77 1.094 1.155 1.984 1.155.693 0 1.243-.273 1.649-.82.411-.552.617-1.37.617-2.453Zm8.211 2.055c0-.39-.148-.693-.445-.907-.292-.218-.805-.406-1.539-.562-.73-.156-1.31-.344-1.743-.563-.427-.218-.744-.479-.953-.78-.203-.303-.304-.662-.304-1.079 0-.693.291-1.279.875-1.758.588-.479 1.338-.719 2.25-.719.958 0 1.734.248 2.328.743.599.495.898 1.127.898 1.898h-1.453c0-.396-.169-.737-.508-1.023-.333-.287-.755-.43-1.265-.43-.526 0-.938.115-1.235.344-.297.229-.445.528-.445.898 0 .35.138.612.414.79.276.176.773.346 1.492.507.724.162 1.31.354 1.758.578.448.224.779.495.992.813.219.312.328.695.328 1.148 0 .755-.302 1.362-.906 1.82-.604.454-1.388.68-2.352.68-.677 0-1.276-.12-1.796-.36a2.964 2.964 0 0 1-1.227-1 2.45 2.45 0 0 1-.437-1.398h1.445c.026.485.219.87.578 1.157.365.28.844.421 1.437.421.547 0 .985-.109 1.313-.328.333-.224.5-.52.5-.89Zm8.547 1.406c-.563.661-1.388.992-2.477.992-.901 0-1.588-.26-2.062-.781-.469-.526-.706-1.302-.711-2.328v-5.5h1.445v5.46c0 1.282.521 1.923 1.563 1.923 1.104 0 1.838-.412 2.203-1.235v-6.148h1.445v8.453h-1.375l-.031-.836Zm4.969-7.617.039.937c.619-.729 1.455-1.094 2.508-1.094 1.182 0 1.986.454 2.414 1.36a3.207 3.207 0 0 1 1.093-.985c.453-.25.987-.375 1.602-.375 1.854 0 2.797.982 2.828 2.946v5.664h-1.445V48.78c0-.604-.138-1.055-.414-1.352-.276-.302-.74-.453-1.391-.453-.536 0-.982.162-1.336.484-.354.318-.56.748-.617 1.29v5.609h-1.453v-5.54c0-1.228-.602-1.843-1.805-1.843-.948 0-1.596.404-1.945 1.211v6.172h-1.446v-8.453h1.368Zm16.289 4.156c0-1.297.307-2.338.922-3.125.614-.792 1.419-1.188 2.414-1.188.989 0 1.773.34 2.351 1.016V42.36h1.445v12h-1.328l-.07-.906c-.578.708-1.383 1.062-2.414 1.062-.979 0-1.779-.4-2.398-1.203-.615-.802-.922-1.849-.922-3.14v-.11Zm1.445.164c0 .958.198 1.708.594 2.25.396.542.942.813 1.64.813.917 0 1.586-.412 2.008-1.235v-3.883c-.432-.797-1.096-1.195-1.992-1.195-.708 0-1.26.273-1.656.82-.396.547-.594 1.357-.594 2.43Zm7.555-.172c0-.828.161-1.573.484-2.234.328-.662.781-1.172 1.359-1.531.584-.36 1.248-.54 1.993-.54 1.151 0 2.08.399 2.789 1.196.713.797 1.07 1.857 1.07 3.18v.101c0 .823-.159 1.563-.477 2.219a3.559 3.559 0 0 1-1.351 1.523c-.583.365-1.255.547-2.016.547-1.146 0-2.075-.398-2.789-1.195-.708-.797-1.062-1.852-1.062-3.164v-.102Zm1.453.172c0 .938.216 1.69.648 2.258.438.568 1.021.851 1.75.851.735 0 1.318-.286 1.75-.859.433-.578.649-1.385.649-2.422 0-.927-.222-1.677-.664-2.25-.438-.578-1.021-.867-1.75-.867-.714 0-1.289.284-1.727.852-.437.567-.656 1.38-.656 2.437Zm9.625 4.133h-1.446v-12h1.446v12Zm1.937-4.305c0-.828.162-1.573.485-2.234.328-.662.781-1.172 1.359-1.531.583-.36 1.247-.54 1.992-.54 1.151 0 2.081.399 2.789 1.196.714.797 1.071 1.857 1.071 3.18v.101c0 .823-.159 1.563-.477 2.219a3.555 3.555 0 0 1-1.352 1.523c-.583.365-1.255.547-2.015.547-1.146 0-2.076-.398-2.789-1.195-.709-.797-1.063-1.852-1.063-3.164v-.102Zm1.453.172c0 .938.217 1.69.649 2.258.437.568 1.021.851 1.75.851.734 0 1.318-.286 1.75-.859.432-.578.648-1.385.648-2.422 0-.927-.221-1.677-.664-2.25-.437-.578-1.021-.867-1.75-.867-.713 0-1.289.284-1.726.852-.438.567-.657 1.38-.657 2.437Zm12.141-3.023a4.342 4.342 0 0 0-.711-.055c-.948 0-1.591.404-1.93 1.21v6h-1.445v-8.452h1.406l.024.976c.474-.755 1.146-1.133 2.015-1.133.282 0 .495.037.641.11v1.344Zm10.227 4.914c0-.39-.149-.693-.446-.907-.291-.218-.804-.406-1.539-.562-.729-.156-1.31-.344-1.742-.563-.427-.218-.745-.479-.953-.78-.203-.303-.305-.662-.305-1.079 0-.693.292-1.279.875-1.758.589-.479 1.339-.719 2.25-.719.959 0 1.735.248 2.328.743.599.495.899 1.127.899 1.898h-1.453c0-.396-.17-.737-.508-1.023-.333-.287-.755-.43-1.266-.43-.526 0-.937.115-1.234.344-.297.229-.445.528-.445.898 0 .35.138.612.414.79.276.176.773.346 1.492.507.724.162 1.31.354 1.758.578.448.224.778.495.992.813.219.312.328.695.328 1.148 0 .755-.302 1.362-.906 1.82-.604.454-1.388.68-2.352.68-.677 0-1.276-.12-1.797-.36a2.961 2.961 0 0 1-1.226-1 2.45 2.45 0 0 1-.438-1.398h1.446c.026.485.218.87.578 1.157.364.28.843.421 1.437.421.547 0 .985-.109 1.313-.328.333-.224.5-.52.5-.89Zm4.898 2.242h-1.445v-8.453h1.445v8.453Zm-1.562-10.695c0-.235.07-.433.21-.594.146-.162.36-.242.641-.242s.495.08.641.242c.146.161.218.36.218.594 0 .234-.072.43-.218.585-.146.157-.36.235-.641.235s-.495-.078-.641-.235a.845.845 0 0 1-.21-.585Zm5.843.195v2.047h1.578v1.117h-1.578v5.242c0 .339.071.594.211.766.141.166.38.25.719.25.167 0 .396-.032.687-.094v1.172c-.38.104-.75.156-1.109.156-.646 0-1.133-.195-1.461-.586-.328-.39-.492-.945-.492-1.664v-5.242h-1.539v-1.117h1.539v-2.047h1.445Zm12.461 10.5c-.083-.167-.151-.464-.203-.89-.672.697-1.474 1.046-2.406 1.046-.833 0-1.518-.234-2.055-.703-.531-.474-.797-1.073-.797-1.797 0-.88.334-1.562 1-2.047.672-.49 1.615-.734 2.828-.734h1.407v-.664c0-.505-.151-.906-.453-1.203-.303-.302-.748-.453-1.336-.453-.516 0-.948.13-1.297.39s-.524.576-.524.945h-1.453c0-.421.149-.828.445-1.218a3.096 3.096 0 0 1 1.219-.938 4.13 4.13 0 0 1 1.696-.344c.974 0 1.737.245 2.289.735.552.484.838 1.154.859 2.008v3.89c0 .776.099 1.394.297 1.852v.125h-1.516Zm-2.398-1.102a2.54 2.54 0 0 0 1.289-.351c.406-.235.7-.54.883-.914v-1.735h-1.133c-1.771 0-2.656.519-2.656 1.555 0 .453.151.807.453 1.063.302.255.69.382 1.164.382Zm7.242-7.351.039.937c.62-.729 1.456-1.094 2.508-1.094 1.182 0 1.987.454 2.414 1.36a3.21 3.21 0 0 1 1.094-.985c.453-.25.987-.375 1.601-.375 1.854 0 2.797.982 2.828 2.946v5.664h-1.445V48.78c0-.604-.138-1.055-.414-1.352-.276-.302-.74-.453-1.391-.453-.536 0-.981.162-1.336.484-.354.318-.559.748-.617 1.29v5.609h-1.453v-5.54c0-1.228-.601-1.843-1.805-1.843-.947 0-1.596.404-1.945 1.211v6.172h-1.445v-8.453h1.367Zm16.18 8.61c-1.146 0-2.078-.376-2.797-1.126-.719-.755-1.078-1.763-1.078-3.023V50.1c0-.838.159-1.586.476-2.242.323-.662.771-1.177 1.344-1.547a3.38 3.38 0 0 1 1.875-.563c1.099 0 1.953.362 2.562 1.086.61.724.915 1.76.915 3.11v.601h-5.727c.021.834.263 1.508.727 2.024.468.51 1.062.765 1.781.765.51 0 .943-.104 1.297-.312.354-.208.664-.484.929-.828l.883.687c-.708 1.089-1.771 1.633-3.187 1.633Zm-.18-7.579c-.583 0-1.073.214-1.469.64-.396.422-.64 1.016-.734 1.782h4.234v-.11c-.041-.734-.239-1.302-.593-1.703-.355-.406-.834-.609-1.438-.609Zm7.117-3.078v2.047h1.578v1.117h-1.578v5.242c0 .339.071.594.211.766.141.166.38.25.719.25.167 0 .396-.032.687-.094v1.172c-.38.104-.75.156-1.109.156-.646 0-1.133-.195-1.461-.586-.328-.39-.492-.945-.492-1.664v-5.242h-1.539v-1.117h1.539v-2.047h1.445Zm3.227 12.765-.821-.562c.49-.682.745-1.385.766-2.11v-1.304h1.414v1.133c0 .526-.13 1.052-.391 1.578-.255.526-.578.948-.968 1.265Zm10.547-3.289a2.08 2.08 0 0 0 1.351-.468c.386-.313.599-.703.641-1.172h1.367a2.623 2.623 0 0 1-.5 1.383 3.287 3.287 0 0 1-1.234 1.046c-.511.26-1.052.391-1.625.391-1.151 0-2.068-.383-2.75-1.148-.677-.771-1.016-1.823-1.016-3.157v-.242c0-.823.151-1.554.453-2.195a3.456 3.456 0 0 1 1.297-1.492c.568-.354 1.237-.532 2.008-.532.948 0 1.734.284 2.359.852.63.568.966 1.305 1.008 2.211h-1.367c-.042-.547-.25-.995-.625-1.344-.37-.354-.828-.531-1.375-.531-.735 0-1.305.266-1.711.797-.401.526-.602 1.289-.602 2.289v.273c0 .974.201 1.724.602 2.25.401.526.974.79 1.719.79Zm4.601-3.28c0-.829.162-1.574.485-2.235.328-.662.781-1.172 1.359-1.531.583-.36 1.247-.54 1.992-.54 1.151 0 2.081.399 2.789 1.196.714.797 1.071 1.857 1.071 3.18v.101c0 .823-.159 1.563-.477 2.219a3.561 3.561 0 0 1-1.352 1.523c-.583.365-1.255.547-2.015.547-1.146 0-2.076-.398-2.789-1.195-.709-.797-1.063-1.852-1.063-3.164v-.102Zm1.453.171c0 .938.216 1.69.649 2.258.437.568 1.021.851 1.75.851.734 0 1.317-.286 1.75-.859.432-.578.648-1.385.648-2.422 0-.927-.221-1.677-.664-2.25-.437-.578-1.021-.867-1.75-.867-.713 0-1.289.284-1.726.852-.438.567-.657 1.38-.657 2.437Zm9.422-4.32.047 1.062c.646-.812 1.49-1.219 2.531-1.219 1.787 0 2.688 1.008 2.703 3.024v5.586h-1.445v-5.594c-.005-.61-.146-1.06-.422-1.351-.271-.292-.695-.438-1.273-.438-.469 0-.88.125-1.235.375-.354.25-.63.578-.828.984v6.024H273.5v-8.453h1.367Zm12.383 6.21c0-.39-.148-.692-.445-.906-.292-.218-.805-.406-1.539-.562-.73-.156-1.31-.344-1.743-.563-.427-.218-.744-.479-.953-.78-.203-.303-.304-.662-.304-1.079 0-.693.291-1.279.875-1.758.588-.479 1.338-.719 2.25-.719.958 0 1.734.248 2.328.743.599.495.898 1.127.898 1.898h-1.453c0-.396-.169-.737-.508-1.023-.333-.287-.755-.43-1.265-.43-.526 0-.938.115-1.235.344-.297.229-.445.528-.445.898 0 .35.138.612.414.79.276.176.773.346 1.492.507.724.162 1.31.354 1.758.578.448.224.779.495.992.813.219.312.328.695.328 1.148 0 .755-.302 1.362-.906 1.82-.604.454-1.388.68-2.351.68-.678 0-1.277-.12-1.797-.36a2.964 2.964 0 0 1-1.227-1 2.45 2.45 0 0 1-.437-1.398h1.445c.026.485.219.87.578 1.157.365.28.844.421 1.438.421.546 0 .984-.109 1.312-.328.333-.224.5-.52.5-.89Zm6.836 2.4c-1.146 0-2.078-.376-2.797-1.126-.719-.755-1.078-1.763-1.078-3.023V50.1c0-.838.159-1.586.477-2.242.322-.662.77-1.177 1.343-1.547a3.38 3.38 0 0 1 1.875-.563c1.099 0 1.953.362 2.563 1.086.609.724.914 1.76.914 3.11v.601h-5.727c.021.834.263 1.508.727 2.024.469.51 1.062.765 1.781.765.51 0 .943-.104 1.297-.312.354-.208.664-.484.93-.828l.882.687c-.708 1.089-1.77 1.633-3.187 1.633Zm-.18-7.579a1.92 1.92 0 0 0-1.468.64c-.396.422-.641 1.016-.735 1.782h4.235v-.11c-.042-.734-.24-1.302-.594-1.703-.354-.406-.834-.609-1.438-.609Zm8.547 6.398c.516 0 .966-.156 1.352-.468.385-.313.599-.703.64-1.172h1.367a2.614 2.614 0 0 1-.5 1.383 3.28 3.28 0 0 1-1.234 1.046c-.51.26-1.052.391-1.625.391-1.151 0-2.068-.383-2.75-1.148-.677-.771-1.015-1.823-1.015-3.157v-.242c0-.823.151-1.554.453-2.195a3.456 3.456 0 0 1 1.297-1.492c.567-.354 1.236-.532 2.007-.532.948 0 1.735.284 2.36.852.63.568.966 1.305 1.007 2.211h-1.367c-.041-.547-.25-.995-.625-1.344-.369-.354-.828-.531-1.375-.531-.734 0-1.304.266-1.711.797-.401.526-.601 1.289-.601 2.289v.273c0 .974.2 1.724.601 2.25.401.526.974.79 1.719.79Zm6.945-9.476v2.047h1.579v1.117h-1.579v5.242c0 .339.071.594.211.766.141.166.381.25.719.25.167 0 .396-.032.688-.094v1.172c-.381.104-.75.156-1.11.156-.646 0-1.133-.195-1.461-.586-.328-.39-.492-.945-.492-1.664v-5.242h-1.539v-1.117h1.539v-2.047h1.445Zm6.782 10.656c-1.146 0-2.078-.375-2.797-1.125-.719-.755-1.078-1.763-1.078-3.023V50.1c0-.838.159-1.586.476-2.242.323-.662.771-1.177 1.344-1.547a3.38 3.38 0 0 1 1.875-.563c1.099 0 1.953.362 2.562 1.086.61.724.915 1.76.915 3.11v.601h-5.727c.021.834.263 1.508.727 2.024.468.51 1.062.765 1.781.765.51 0 .943-.104 1.297-.312.354-.208.664-.484.929-.828l.883.687c-.708 1.089-1.771 1.633-3.187 1.633Zm-.18-7.578c-.583 0-1.073.214-1.469.64-.396.422-.64 1.016-.734 1.782h4.234v-.11c-.041-.734-.239-1.302-.593-1.703-.355-.406-.834-.609-1.438-.609Zm7.117-3.078v2.047h1.578v1.117h-1.578v5.242c0 .339.071.594.211.766.141.166.38.25.719.25.167 0 .396-.032.687-.094v1.172c-.38.104-.75.156-1.109.156-.646 0-1.133-.195-1.461-.586-.328-.39-.492-.945-.492-1.664v-5.242h-1.539v-1.117h1.539v-2.047h1.445Zm8.492 9.664c-.562.661-1.388.992-2.476.992-.901 0-1.589-.26-2.063-.781-.468-.526-.705-1.302-.711-2.328v-5.5h1.446v5.46c0 1.282.521 1.923 1.562 1.923 1.104 0 1.839-.412 2.203-1.235v-6.148h1.446v8.453h-1.375l-.032-.836Zm7.696-6.32a4.342 4.342 0 0 0-.711-.055c-.948 0-1.591.404-1.93 1.21v6h-1.445v-8.452h1.406l.023.976c.474-.755 1.146-1.133 2.016-1.133.281 0 .495.037.641.11v1.344Zm10.523 7.156c-.083-.167-.151-.464-.203-.89-.672.697-1.474 1.046-2.406 1.046-.834 0-1.518-.234-2.055-.703-.531-.474-.797-1.073-.797-1.797 0-.88.334-1.562 1-2.047.672-.49 1.615-.734 2.828-.734h1.407v-.664c0-.505-.151-.906-.454-1.203-.302-.302-.747-.453-1.336-.453-.515 0-.947.13-1.296.39-.349.26-.524.576-.524.945h-1.453c0-.421.149-.828.445-1.218.302-.396.709-.709 1.219-.938a4.128 4.128 0 0 1 1.695-.344c.974 0 1.737.245 2.29.735.552.484.838 1.154.859 2.008v3.89c0 .776.099 1.394.297 1.852v.125h-1.516Zm-2.398-1.102c.453 0 .882-.117 1.289-.351.406-.235.7-.54.883-.914v-1.735h-1.133c-1.771 0-2.657.519-2.657 1.555 0 .453.152.807.454 1.063.302.255.69.382 1.164.382Zm5.531-3.195c0-1.297.307-2.338.922-3.125.614-.792 1.419-1.188 2.414-1.188.989 0 1.773.34 2.351 1.016V42.36h1.446v12h-1.328l-.071-.906c-.578.708-1.383 1.062-2.414 1.062-.979 0-1.778-.4-2.398-1.203-.615-.802-.922-1.849-.922-3.14v-.11Zm1.445.164c0 .958.198 1.708.594 2.25.396.542.943.813 1.641.813.916 0 1.586-.412 2.007-1.235v-3.883c-.432-.797-1.096-1.195-1.992-1.195-.708 0-1.26.273-1.656.82-.396.547-.594 1.357-.594 2.43Zm9.508 4.133h-1.445v-8.453h1.445v8.453Zm-1.562-10.695c0-.235.07-.433.21-.594.146-.162.36-.242.641-.242s.495.08.641.242c.146.161.218.36.218.594 0 .234-.072.43-.218.585-.146.157-.36.235-.641.235s-.495-.078-.641-.235a.845.845 0 0 1-.21-.585Zm11.023 6.562c0 1.287-.294 2.323-.883 3.11-.588.786-1.385 1.18-2.39 1.18-1.026 0-1.834-.326-2.422-.977v4.07h-1.446V45.906h1.321l.07.937c.589-.729 1.406-1.094 2.453-1.094 1.016 0 1.818.383 2.406 1.149.594.766.891 1.83.891 3.195v.133Zm-1.445-.164c0-.953-.203-1.706-.61-2.258-.406-.552-.963-.828-1.672-.828-.875 0-1.531.388-1.968 1.164v4.04c.432.77 1.093 1.155 1.984 1.155.693 0 1.242-.273 1.648-.82.412-.552.618-1.37.618-2.453Zm4.859 4.297h-1.445v-8.453h1.445v8.453Zm-1.562-10.695a.87.87 0 0 1 .211-.594c.145-.162.359-.242.64-.242s.495.08.641.242c.146.161.219.36.219.594 0 .234-.073.43-.219.585-.146.157-.36.235-.641.235s-.495-.078-.64-.235a.841.841 0 0 1-.211-.585Zm8.804 8.453c0-.39-.148-.693-.445-.907-.292-.218-.805-.406-1.539-.562-.729-.156-1.31-.344-1.742-.563-.427-.218-.745-.479-.953-.78-.204-.303-.305-.662-.305-1.079 0-.693.292-1.279.875-1.758.588-.479 1.338-.719 2.25-.719.958 0 1.734.248 2.328.743.599.495.898 1.127.898 1.898h-1.453c0-.396-.169-.737-.507-1.023-.334-.287-.756-.43-1.266-.43-.526 0-.938.115-1.234.344-.297.229-.446.528-.446.898 0 .35.138.612.414.79.276.176.774.346 1.492.507.724.162 1.31.354 1.758.578.448.224.779.495.992.813.219.312.329.695.329 1.148 0 .755-.303 1.362-.907 1.82-.604.454-1.388.68-2.351.68-.677 0-1.276-.12-1.797-.36a2.964 2.964 0 0 1-1.227-1 2.457 2.457 0 0 1-.437-1.398h1.445c.026.485.219.87.578 1.157.365.28.844.421 1.438.421.547 0 .984-.109 1.312-.328.334-.224.5-.52.5-.89Zm6.719 1.218c.516 0 .966-.156 1.352-.468.385-.313.599-.703.64-1.172h1.367a2.614 2.614 0 0 1-.5 1.383 3.28 3.28 0 0 1-1.234 1.046c-.51.26-1.052.391-1.625.391-1.151 0-2.068-.383-2.75-1.148-.677-.771-1.016-1.823-1.016-3.157v-.242c0-.823.151-1.554.454-2.195a3.46 3.46 0 0 1 1.296-1.492c.568-.354 1.237-.532 2.008-.532.948 0 1.735.284 2.36.852.63.568.966 1.305 1.007 2.211h-1.367c-.041-.547-.25-.995-.625-1.344-.37-.354-.828-.531-1.375-.531-.734 0-1.304.266-1.711.797-.401.526-.601 1.289-.601 2.289v.273c0 .974.2 1.724.601 2.25.401.526.974.79 1.719.79Zm6.555 1.024h-1.446v-8.453h1.446v8.453Zm-1.563-10.695a.87.87 0 0 1 .211-.594c.146-.162.359-.242.641-.242.281 0 .495.08.64.242.146.161.219.36.219.594 0 .234-.073.43-.219.585-.145.157-.359.235-.64.235-.282 0-.495-.078-.641-.235a.841.841 0 0 1-.211-.585Zm5.25 2.242.047 1.062c.646-.812 1.49-1.219 2.531-1.219 1.787 0 2.688 1.008 2.703 3.024v5.586h-1.445v-5.594c-.005-.61-.146-1.06-.422-1.351-.271-.292-.695-.438-1.273-.438-.469 0-.88.125-1.235.375-.354.25-.63.578-.828.984v6.024h-1.445v-8.453h1.367Zm7.117 4.156c0-1.318.305-2.365.914-3.14.61-.782 1.417-1.172 2.422-1.172 1.032 0 1.836.364 2.414 1.093l.071-.937h1.32v8.25c0 1.093-.326 1.956-.977 2.586-.645.63-1.515.945-2.609.945-.609 0-1.206-.13-1.789-.39-.583-.261-1.029-.618-1.336-1.07l.75-.868c.62.765 1.378 1.148 2.273 1.148.704 0 1.25-.198 1.641-.593.396-.396.594-.954.594-1.672v-.727c-.578.667-1.367 1-2.367 1-.99 0-1.792-.398-2.407-1.195-.609-.797-.914-1.883-.914-3.258Zm1.453.164c0 .953.196 1.703.586 2.25.391.542.938.813 1.641.813.912 0 1.581-.415 2.008-1.243v-3.859c-.443-.807-1.107-1.21-1.992-1.21-.703 0-1.253.273-1.649.82-.396.546-.594 1.356-.594 2.43Zm-352.96 30.29c-1.146 0-2.079-.376-2.797-1.126-.72-.755-1.078-1.763-1.078-3.023V76.1c0-.838.158-1.586.476-2.242.323-.662.771-1.177 1.344-1.547a3.38 3.38 0 0 1 1.875-.563c1.099 0 1.953.363 2.562 1.086.61.724.914 1.76.914 3.11v.601h-5.726c.02.834.263 1.508.726 2.024.47.51 1.063.765 1.782.765.51 0 .942-.104 1.297-.312.354-.208.664-.484.93-.828l.882.687c-.708 1.089-1.77 1.633-3.187 1.633Zm-.18-7.579c-.583 0-1.073.214-1.469.64-.396.422-.64 1.016-.734 1.782h4.234v-.11c-.042-.734-.24-1.302-.594-1.703-.354-.406-.833-.609-1.437-.609Zm6.726 7.422h-1.445v-12h1.445v12Zm3.891 0h-1.445v-8.453h1.445v8.453Zm-1.562-10.695c0-.235.07-.433.21-.594.146-.162.36-.242.641-.242s.495.08.64.242c.147.161.22.36.22.594 0 .234-.073.43-.22.585-.145.157-.359.235-.64.235s-.495-.078-.64-.234a.843.843 0 0 1-.211-.586Zm5.843.195v2.047h1.578v1.117H71.32v5.242c0 .339.07.594.211.766.14.166.38.25.719.25a3.5 3.5 0 0 0 .688-.094v1.172c-.38.104-.75.156-1.11.156-.646 0-1.133-.195-1.46-.586-.329-.39-.493-.945-.493-1.664v-5.242h-1.54v-1.117h1.54v-2.047h1.445Zm3.305 9.742c0-.25.073-.458.219-.625.15-.167.375-.25.672-.25.296 0 .52.083.671.25a.878.878 0 0 1 .235.625.83.83 0 0 1-.234.602c-.151.161-.376.242-.672.242-.297 0-.521-.08-.672-.242a.864.864 0 0 1-.219-.602Zm11.734-4.312c-1.286-.37-2.224-.823-2.812-1.36a2.622 2.622 0 0 1-.875-2c0-.896.357-1.635 1.07-2.219.719-.588 1.651-.882 2.797-.882.781 0 1.477.15 2.086.453.615.302 1.088.718 1.422 1.25.338.531.508 1.112.508 1.742h-1.508c0-.688-.219-1.227-.656-1.617-.438-.396-1.055-.594-1.852-.594-.74 0-1.318.164-1.734.492-.412.323-.618.774-.618 1.352 0 .463.196.856.586 1.18.396.317 1.066.609 2.008.874.948.266 1.688.56 2.219.883.537.318.932.69 1.188 1.117.26.428.39.93.39 1.508 0 .922-.36 1.662-1.078 2.219-.719.552-1.68.828-2.883.828-.781 0-1.51-.148-2.187-.445-.677-.302-1.2-.714-1.57-1.235a3.017 3.017 0 0 1-.547-1.773h1.507c0 .688.253 1.232.758 1.633.51.396 1.19.594 2.04.594.79 0 1.398-.162 1.82-.485.421-.323.632-.763.632-1.32s-.195-.987-.586-1.29c-.39-.306-1.099-.609-2.125-.905ZM97.5 79.523c-.563.661-1.388.992-2.477.992-.9 0-1.588-.26-2.062-.781-.469-.526-.706-1.302-.711-2.328v-5.5h1.445v5.46c0 1.282.521 1.923 1.563 1.923 1.104 0 1.838-.412 2.203-1.235v-6.148h1.445v8.453h-1.375l-.031-.836Zm8.531-1.406c0-.39-.148-.693-.445-.907-.292-.218-.805-.406-1.539-.562-.729-.156-1.31-.344-1.742-.563-.427-.218-.745-.479-.953-.78-.204-.303-.305-.662-.305-1.079 0-.693.292-1.279.875-1.758.588-.479 1.338-.719 2.25-.719.958 0 1.734.248 2.328.743.599.495.898 1.127.898 1.898h-1.453c0-.396-.169-.737-.507-1.023-.334-.287-.756-.43-1.266-.43-.526 0-.938.115-1.234.344-.297.229-.446.528-.446.898 0 .35.138.612.414.79.276.176.774.346 1.492.507.724.162 1.31.354 1.758.578.448.224.779.495.992.813.219.312.329.695.329 1.148 0 .755-.303 1.362-.907 1.82-.604.454-1.388.68-2.351.68-.677 0-1.276-.12-1.797-.36a2.964 2.964 0 0 1-1.227-1 2.457 2.457 0 0 1-.437-1.398h1.445c.026.485.219.87.578 1.157.365.28.844.421 1.438.421.547 0 .984-.109 1.312-.328.334-.224.5-.52.5-.89Zm10.469-1.89c0 1.285-.294 2.322-.883 3.108-.588.787-1.385 1.18-2.39 1.18-1.026 0-1.834-.325-2.422-.976v4.07h-1.446V71.906h1.321l.07.937c.589-.729 1.406-1.094 2.453-1.094 1.016 0 1.818.383 2.406 1.149.594.766.891 1.83.891 3.195v.133Zm-1.445-.165c0-.953-.203-1.706-.61-2.258-.406-.552-.963-.828-1.672-.828-.875 0-1.531.388-1.968 1.164v4.04c.432.77 1.093 1.155 1.984 1.155.693 0 1.242-.273 1.649-.82.411-.552.617-1.37.617-2.453Zm6.797 4.453c-1.146 0-2.079-.375-2.797-1.125-.719-.755-1.078-1.763-1.078-3.023V76.1c0-.838.158-1.586.476-2.242.323-.662.771-1.177 1.344-1.547a3.38 3.38 0 0 1 1.875-.563c1.099 0 1.953.363 2.562 1.086.61.724.914 1.76.914 3.11v.601h-5.726c.021.834.263 1.508.726 2.024.469.51 1.063.765 1.782.765.51 0 .942-.104 1.297-.312.354-.208.664-.484.929-.828l.883.687c-.708 1.089-1.771 1.633-3.187 1.633Zm-.18-7.578c-.583 0-1.073.214-1.469.64-.396.422-.641 1.016-.734 1.782h4.234v-.11c-.042-.734-.239-1.302-.594-1.703-.354-.406-.833-.609-1.437-.609Zm6.523-1.031.047 1.062c.646-.812 1.49-1.219 2.531-1.219 1.787 0 2.688 1.008 2.704 3.024v5.586h-1.446v-5.594c-.005-.61-.146-1.06-.422-1.351-.27-.292-.695-.438-1.273-.438-.469 0-.88.125-1.234.375-.355.25-.631.578-.829.984v6.024h-1.445v-8.453h1.367Zm7.11 4.156c0-1.297.307-2.338.922-3.125.614-.792 1.419-1.188 2.414-1.188.989 0 1.773.34 2.351 1.016V68.36h1.446v12h-1.329l-.07-.906c-.578.708-1.383 1.062-2.414 1.062-.979 0-1.779-.4-2.398-1.203-.615-.802-.922-1.849-.922-3.14v-.11Zm1.445.164c0 .958.198 1.708.594 2.25.396.542.942.813 1.64.813.917 0 1.586-.412 2.008-1.235v-3.883c-.432-.797-1.096-1.195-1.992-1.195-.708 0-1.26.273-1.656.82-.396.547-.594 1.357-.594 2.43Zm9.508 4.133h-1.446v-8.453h1.446v8.453Zm-1.563-10.695c0-.235.071-.433.211-.594.146-.162.36-.242.641-.242s.495.08.641.242c.145.161.218.36.218.594 0 .234-.073.43-.218.585-.146.157-.36.235-.641.235s-.495-.078-.641-.234a.846.846 0 0 1-.211-.586Zm8.805 8.453c0-.39-.148-.693-.445-.907-.292-.218-.805-.406-1.539-.562-.73-.156-1.31-.344-1.743-.563-.427-.218-.744-.479-.953-.78-.203-.303-.304-.662-.304-1.079 0-.693.291-1.279.875-1.758.588-.479 1.338-.719 2.25-.719.958 0 1.734.248 2.328.743.599.495.898 1.127.898 1.898h-1.453c0-.396-.169-.737-.508-1.023-.333-.287-.755-.43-1.265-.43-.526 0-.938.115-1.235.344-.297.229-.445.528-.445.898 0 .35.138.612.414.79.276.176.773.346 1.492.507.724.162 1.31.354 1.758.578.448.224.779.495.992.813.219.312.328.695.328 1.148 0 .755-.302 1.362-.906 1.82-.604.454-1.388.68-2.351.68-.678 0-1.277-.12-1.797-.36a2.964 2.964 0 0 1-1.227-1 2.45 2.45 0 0 1-.437-1.398h1.445c.026.485.219.87.578 1.157.365.28.844.421 1.438.421.546 0 .984-.109 1.312-.328.333-.224.5-.52.5-.89Zm8.25 0c0-.39-.148-.693-.445-.907-.292-.218-.805-.406-1.539-.562-.73-.156-1.31-.344-1.743-.563-.427-.218-.744-.479-.953-.78-.203-.303-.304-.662-.304-1.079 0-.693.291-1.279.875-1.758.588-.479 1.338-.719 2.25-.719.958 0 1.734.248 2.328.743.599.495.898 1.127.898 1.898h-1.453c0-.396-.169-.737-.508-1.023-.333-.287-.755-.43-1.265-.43-.526 0-.938.115-1.235.344-.297.229-.445.528-.445.898 0 .35.138.612.414.79.276.176.773.346 1.492.507.724.162 1.31.354 1.758.578.448.224.779.495.992.813.219.312.328.695.328 1.148 0 .755-.302 1.362-.906 1.82-.604.454-1.388.68-2.351.68-.678 0-1.277-.12-1.797-.36a2.964 2.964 0 0 1-1.227-1 2.45 2.45 0 0 1-.437-1.398h1.445c.026.485.219.87.578 1.157.365.28.844.421 1.438.421.546 0 .984-.109 1.312-.328.333-.224.5-.52.5-.89Zm6.836 2.398c-1.146 0-2.078-.375-2.797-1.125-.719-.755-1.078-1.763-1.078-3.023V76.1c0-.838.159-1.586.477-2.242.322-.662.77-1.177 1.343-1.547a3.38 3.38 0 0 1 1.875-.563c1.099 0 1.953.363 2.563 1.086.609.724.914 1.76.914 3.11v.601h-5.727c.021.834.263 1.508.727 2.024.469.51 1.062.765 1.781.765.51 0 .943-.104 1.297-.312.354-.208.664-.484.93-.828l.882.687c-.708 1.089-1.77 1.633-3.187 1.633Zm-.18-7.578a1.92 1.92 0 0 0-1.468.64c-.396.422-.641 1.016-.735 1.782h4.235v-.11c-.042-.734-.24-1.302-.594-1.703-.354-.406-.834-.609-1.438-.609Zm11.914 5.46 2.094-6.491h1.477l-3.032 8.453h-1.101l-3.063-8.453h1.477l2.148 6.492Zm10.055 1.962c-.083-.167-.151-.464-.203-.89-.672.697-1.474 1.046-2.406 1.046-.834 0-1.519-.234-2.055-.703-.531-.474-.797-1.073-.797-1.797 0-.88.333-1.562 1-2.047.672-.49 1.615-.734 2.828-.734h1.406v-.664c0-.505-.151-.906-.453-1.203-.302-.302-.747-.453-1.336-.453-.515 0-.948.13-1.297.39-.348.26-.523.576-.523.945h-1.453c0-.421.148-.828.445-1.218.302-.396.709-.709 1.219-.938a4.128 4.128 0 0 1 1.695-.344c.974 0 1.737.245 2.289.735.552.484.839 1.154.86 2.008v3.89c0 .776.099 1.394.297 1.852v.125h-1.516Zm-2.398-1.102c.453 0 .882-.117 1.289-.351.406-.235.7-.54.882-.914v-1.735h-1.132c-1.771 0-2.657.519-2.657 1.555 0 .453.151.807.453 1.063.303.255.691.382 1.165.382Zm9.968-6.054a4.325 4.325 0 0 0-.711-.055c-.948 0-1.591.404-1.929 1.21v6h-1.446v-8.452h1.407l.023.976c.474-.755 1.146-1.133 2.016-1.133.281 0 .494.037.64.11v1.344Zm2.907 7.156h-1.446v-8.453h1.446v8.453Zm-1.563-10.695a.87.87 0 0 1 .211-.594c.146-.162.359-.242.641-.242.281 0 .494.08.64.242.146.161.219.36.219.594 0 .234-.073.43-.219.585-.146.157-.359.235-.64.235-.282 0-.495-.078-.641-.234a.841.841 0 0 1-.211-.586Zm9.102 9.859c-.563.661-1.388.992-2.477.992-.901 0-1.588-.26-2.062-.781-.469-.526-.706-1.302-.711-2.328v-5.5h1.445v5.46c0 1.282.521 1.923 1.562 1.923 1.105 0 1.839-.412 2.204-1.235v-6.148h1.445v8.453h-1.375l-.031-.836Zm8.531-1.406c0-.39-.149-.693-.445-.907-.292-.218-.805-.406-1.539-.562-.73-.156-1.31-.344-1.743-.563-.427-.218-.744-.479-.953-.78-.203-.303-.304-.662-.304-1.079 0-.693.291-1.279.874-1.758.589-.479 1.339-.719 2.25-.719.959 0 1.735.248 2.329.743.599.495.898 1.127.898 1.898h-1.453c0-.396-.169-.737-.508-1.023-.333-.287-.755-.43-1.266-.43-.526 0-.937.115-1.234.344-.297.229-.445.528-.445.898 0 .35.138.612.414.79.276.176.773.346 1.492.507.724.162 1.31.354 1.758.578.448.224.779.495.992.813.219.312.328.695.328 1.148 0 .755-.302 1.362-.906 1.82-.604.454-1.388.68-2.352.68-.677 0-1.276-.12-1.797-.36a2.967 2.967 0 0 1-1.226-1 2.45 2.45 0 0 1-.438-1.398h1.446c.026.485.218.87.578 1.157.364.28.844.421 1.437.421.547 0 .985-.109 1.313-.328.333-.224.5-.52.5-.89Zm10.805 2.398c-1.146 0-2.079-.375-2.797-1.125-.719-.755-1.078-1.763-1.078-3.023V76.1c0-.838.158-1.586.476-2.242.323-.662.771-1.177 1.344-1.547a3.38 3.38 0 0 1 1.875-.563c1.099 0 1.953.363 2.562 1.086.61.724.914 1.76.914 3.11v.601h-5.726c.021.834.263 1.508.726 2.024.469.51 1.063.765 1.782.765.51 0 .942-.104 1.297-.312.354-.208.664-.484.929-.828l.883.687c-.708 1.089-1.771 1.633-3.187 1.633Zm-.18-7.578c-.583 0-1.073.214-1.469.64-.396.422-.64 1.016-.734 1.782h4.234v-.11c-.042-.734-.239-1.302-.594-1.703-.354-.406-.833-.609-1.437-.609Zm6.523-1.031.047 1.062c.646-.812 1.49-1.219 2.531-1.219 1.787 0 2.688 1.008 2.704 3.024v5.586h-1.446v-5.594c-.005-.61-.146-1.06-.422-1.351-.27-.292-.695-.438-1.273-.438-.469 0-.88.125-1.234.375-.355.25-.631.578-.829.984v6.024h-1.445v-8.453h1.367Zm9.032 8.453h-1.446v-8.453h1.446v8.453Zm-1.563-10.695a.87.87 0 0 1 .211-.594c.146-.162.359-.242.641-.242.281 0 .494.08.64.242.146.161.219.36.219.594 0 .234-.073.43-.219.585-.146.157-.359.235-.64.235-.282 0-.495-.078-.641-.234a.841.841 0 0 1-.211-.586Zm5.242 2.242.039.937c.62-.729 1.456-1.094 2.508-1.094 1.182 0 1.987.454 2.414 1.36a3.21 3.21 0 0 1 1.094-.984c.453-.25.987-.376 1.602-.376 1.854 0 2.796.982 2.828 2.946v5.664h-1.446V74.78c0-.604-.138-1.055-.414-1.352-.276-.302-.739-.453-1.39-.453-.537 0-.982.162-1.336.484-.354.318-.56.748-.618 1.29v5.609h-1.453v-5.54c0-1.228-.601-1.843-1.804-1.843-.948 0-1.597.404-1.946 1.211v6.172h-1.445v-8.453h1.367Zm18.211 8.453h-1.445v-8.453h1.445v8.453Zm-1.562-10.695a.87.87 0 0 1 .211-.594c.145-.162.359-.242.64-.242s.495.08.641.242c.146.161.219.36.219.594 0 .234-.073.43-.219.585-.146.157-.36.235-.641.235s-.495-.078-.64-.234a.841.841 0 0 1-.211-.586Zm5.25 2.242.047 1.062c.645-.812 1.489-1.219 2.531-1.219 1.786 0 2.687 1.008 2.703 3.024v5.586h-1.445v-5.594c-.006-.61-.146-1.06-.422-1.351-.271-.292-.696-.438-1.274-.438-.468 0-.88.125-1.234.375s-.63.578-.828.984v6.024h-1.446v-8.453h1.368Zm14.937 8.61c-1.146 0-2.078-.376-2.797-1.126-.718-.755-1.078-1.763-1.078-3.023V76.1c0-.838.159-1.586.477-2.242.323-.662.771-1.177 1.343-1.547a3.385 3.385 0 0 1 1.876-.563c1.098 0 1.953.363 2.562 1.086.609.724.914 1.76.914 3.11v.601h-5.726c.02.834.263 1.508.726 2.024.469.51 1.063.765 1.781.765.511 0 .943-.104 1.297-.312.354-.208.664-.484.93-.828l.883.687c-.709 1.089-1.771 1.633-3.188 1.633Zm-.179-7.579c-.584 0-1.073.214-1.469.64-.396.422-.641 1.016-.735 1.782h4.235v-.11c-.042-.734-.24-1.302-.594-1.703-.354-.406-.833-.609-1.437-.609Zm9.242.266a4.342 4.342 0 0 0-.711-.055c-.948 0-1.591.404-1.93 1.21v6h-1.445v-8.452H290l.023.976c.474-.755 1.146-1.133 2.016-1.133.281 0 .495.037.641.11v1.344Zm.797 2.851c0-.828.161-1.573.484-2.234.328-.662.781-1.172 1.359-1.531.584-.36 1.248-.54 1.992-.54 1.152 0 2.081.399 2.79 1.196.713.797 1.07 1.857 1.07 3.18v.101c0 .823-.159 1.563-.477 2.219a3.559 3.559 0 0 1-1.351 1.523c-.584.365-1.255.547-2.016.547-1.146 0-2.075-.398-2.789-1.195-.708-.797-1.062-1.852-1.062-3.164v-.102Zm1.453.172c0 .938.216 1.69.648 2.258.438.568 1.021.851 1.75.851.734 0 1.318-.286 1.75-.859.432-.578.649-1.385.649-2.422 0-.927-.222-1.677-.665-2.25-.437-.578-1.02-.867-1.75-.867-.713 0-1.289.284-1.726.852-.438.567-.656 1.38-.656 2.437Zm12.976 1.89c0-.39-.148-.692-.445-.906-.292-.218-.805-.406-1.539-.562-.729-.156-1.31-.344-1.742-.563-.427-.218-.745-.479-.953-.78-.204-.303-.305-.662-.305-1.079 0-.693.292-1.279.875-1.758.588-.479 1.338-.719 2.25-.719.958 0 1.734.248 2.328.743.599.495.898 1.127.898 1.898h-1.453c0-.396-.169-.737-.508-1.023-.333-.287-.755-.43-1.265-.43-.526 0-.938.115-1.235.344-.296.229-.445.528-.445.898 0 .35.138.612.414.79.276.176.774.346 1.492.507.724.162 1.31.354 1.758.578.448.224.779.495.992.813.219.312.329.695.329 1.148 0 .755-.303 1.362-.907 1.82-.604.454-1.388.68-2.351.68-.677 0-1.276-.12-1.797-.36a2.964 2.964 0 0 1-1.227-1 2.457 2.457 0 0 1-.437-1.398h1.445c.026.485.219.87.578 1.157.365.28.844.421 1.438.421.547 0 .984-.109 1.312-.328.334-.224.5-.52.5-.89Zm3.36 1.485c0-.25.073-.458.218-.625.151-.167.375-.25.672-.25.297 0 .521.083.672.25a.879.879 0 0 1 .234.625c0 .24-.078.44-.234.602-.151.161-.375.242-.672.242-.297 0-.521-.08-.672-.242a.867.867 0 0 1-.218-.602Z"/><path fill="#1D2130" d="M53.523 22.359V5.296H59.5c2.07 0 3.64.399 4.71 1.196 1.071.789 1.606 1.949 1.606 3.48 0 .836-.214 1.574-.644 2.215-.43.633-1.028 1.098-1.793 1.395.875.218 1.562.66 2.062 1.324.508.664.762 1.476.762 2.437 0 1.64-.523 2.883-1.57 3.727-1.047.844-2.54 1.273-4.477 1.289h-6.633Zm3.516-7.43v4.606h3.012c.828 0 1.472-.196 1.933-.586.47-.399.703-.946.703-1.64 0-1.563-.808-2.356-2.425-2.38h-3.223Zm0-2.484h2.602c1.773-.031 2.66-.739 2.66-2.121 0-.774-.227-1.328-.68-1.664-.445-.344-1.152-.516-2.121-.516h-2.46v4.3Zm19.184 8.625c-.836 1.015-1.992 1.523-3.47 1.523-1.359 0-2.397-.39-3.116-1.172-.711-.78-1.075-1.925-1.09-3.433V9.679h3.387v8.192c0 1.32.601 1.98 1.804 1.98 1.149 0 1.938-.398 2.368-1.195V9.679h3.398v12.68h-3.188l-.093-1.29Zm9.41 1.289h-3.399V9.679h3.399v12.68ZM82.035 6.398c0-.508.168-.926.504-1.254.344-.328.809-.492 1.395-.492.578 0 1.039.164 1.382.492.344.328.516.746.516 1.254 0 .516-.176.937-.527 1.266-.344.328-.801.492-1.371.492s-1.032-.164-1.383-.492c-.344-.329-.516-.75-.516-1.266Zm9.973 15.96h-3.399v-18h3.399v18Zm2.273-6.433c0-1.976.442-3.55 1.325-4.722.89-1.172 2.105-1.758 3.644-1.758 1.234 0 2.254.46 3.059 1.383v-6.47h3.398v18h-3.059l-.164-1.347c-.843 1.055-1.929 1.582-3.257 1.582-1.493 0-2.692-.586-3.598-1.758-.898-1.18-1.348-2.816-1.348-4.91Zm3.387.246c0 1.188.207 2.098.621 2.73.414.634 1.016.95 1.805.95 1.047 0 1.785-.441 2.215-1.324v-5.004c-.422-.883-1.153-1.324-2.192-1.324-1.633 0-2.449 1.324-2.449 3.972Zm30.75 6.188h-3.516v-7.313h-6.855v7.313h-3.516V5.296h3.516v6.914h6.855V5.296h3.516V22.36Zm8.695.234c-1.859 0-3.375-.57-4.547-1.71-1.164-1.141-1.746-2.66-1.746-4.56v-.327c0-1.274.246-2.41.739-3.41.492-1.008 1.187-1.782 2.086-2.32.906-.548 1.937-.821 3.093-.821 1.735 0 3.098.547 4.09 1.64 1 1.094 1.5 2.645 1.5 4.653v1.383h-8.074c.109.828.437 1.492.984 1.992.555.5 1.254.75 2.098.75 1.305 0 2.324-.473 3.059-1.418l1.664 1.863c-.508.719-1.196 1.281-2.063 1.688-.867.398-1.828.597-2.883.597Zm-.386-10.406c-.672 0-1.219.227-1.641.68-.414.453-.68 1.101-.797 1.945H139v-.27c-.016-.75-.219-1.328-.609-1.734-.391-.414-.946-.621-1.664-.621Zm14.882 10.172c-.156-.305-.269-.684-.339-1.137-.821.914-1.887 1.371-3.2 1.371-1.242 0-2.273-.36-3.093-1.078-.813-.719-1.219-1.625-1.219-2.719 0-1.343.496-2.375 1.488-3.093 1-.72 2.442-1.082 4.324-1.09h1.559v-.727c0-.586-.152-1.054-.457-1.406-.297-.352-.77-.527-1.418-.527-.57 0-1.02.136-1.348.41-.32.273-.48.648-.48 1.125h-3.387c0-.735.227-1.414.68-2.04.453-.624 1.093-1.113 1.922-1.464.828-.36 1.757-.54 2.789-.54 1.562 0 2.8.395 3.715 1.184.921.782 1.382 1.883 1.382 3.305v5.496c.008 1.203.176 2.114.504 2.73v.2h-3.422Zm-2.8-2.356c.5 0 .961-.109 1.382-.328.422-.226.735-.527.938-.902v-2.18h-1.266c-1.695 0-2.597.586-2.707 1.758l-.011.2c0 .421.148.769.445 1.042.297.274.703.41 1.219.41Zm11.894 2.356h-3.398v-18h3.398v18Zm6.856-15.797v3.117h2.168v2.485h-2.168v6.328c0 .468.089.804.269 1.008.18.203.524.304 1.031.304.375 0 .707-.027.996-.082v2.567a6.968 6.968 0 0 1-2.05.304c-2.375 0-3.586-1.199-3.633-3.597v-6.832h-1.852V9.679h1.852V6.562h3.387Zm7.359 4.5c.898-1.078 2.027-1.617 3.387-1.617 2.75 0 4.144 1.598 4.183 4.793v8.12h-3.386v-8.027c0-.726-.157-1.261-.469-1.605-.313-.352-.832-.527-1.559-.527-.992 0-1.711.383-2.156 1.148v9.012h-3.387v-18h3.387v6.703Zm14.859 6.504 2.344-7.887h3.633l-5.098 14.649-.281.668c-.758 1.656-2.008 2.484-3.75 2.484-.492 0-.992-.074-1.5-.223v-2.566l.516.012c.64 0 1.117-.098 1.429-.293.321-.196.571-.52.75-.973l.399-1.043-4.442-12.715h3.645l2.355 7.887Zm26.907-.89c-.133 1.835-.813 3.28-2.039 4.335-1.219 1.055-2.829 1.582-4.829 1.582-2.187 0-3.91-.734-5.168-2.203-1.25-1.476-1.875-3.5-1.875-6.07v-1.043c0-1.64.289-3.086.868-4.336.578-1.25 1.402-2.207 2.472-2.871 1.078-.672 2.328-1.008 3.75-1.008 1.969 0 3.555.527 4.758 1.582 1.203 1.055 1.899 2.535 2.086 4.441h-3.516c-.086-1.101-.394-1.898-.925-2.39-.524-.5-1.325-.75-2.403-.75-1.172 0-2.051.422-2.636 1.265-.579.836-.875 2.137-.891 3.903v1.289c0 1.844.277 3.191.832 4.043.562.851 1.445 1.277 2.648 1.277 1.086 0 1.895-.246 2.426-.738.539-.5.848-1.27.926-2.309h3.516Zm5.66 5.683h-3.399V9.679h3.399v12.68Zm-3.598-15.961c0-.508.168-.926.504-1.254.344-.328.809-.492 1.395-.492.578 0 1.039.164 1.382.492.344.328.516.746.516 1.254 0 .516-.176.937-.527 1.266-.344.328-.801.492-1.371.492-.571 0-1.032-.164-1.383-.492-.344-.329-.516-.75-.516-1.266Zm10.453.164v3.117h2.168v2.485h-2.168v6.328c0 .468.09.804.27 1.008.179.203.523.304 1.031.304.375 0 .707-.027.996-.082v2.567a6.975 6.975 0 0 1-2.051.304c-2.375 0-3.586-1.199-3.633-3.597v-6.832h-1.851V9.679h1.851V6.562h3.387Zm7.629 15.797h-3.398V9.679h3.398v12.68ZM233.23 6.398c0-.508.168-.926.504-1.254.344-.328.809-.492 1.395-.492.578 0 1.039.164 1.383.492.343.328.515.746.515 1.254 0 .516-.175.937-.527 1.266-.344.328-.801.492-1.371.492s-1.031-.164-1.383-.492c-.344-.329-.516-.75-.516-1.266Zm12.235 16.195c-1.86 0-3.375-.57-4.547-1.71-1.164-1.141-1.746-2.66-1.746-4.56v-.327c0-1.274.246-2.41.738-3.41.492-1.008 1.188-1.782 2.086-2.32.906-.548 1.938-.821 3.094-.821 1.734 0 3.098.547 4.09 1.64 1 1.094 1.5 2.645 1.5 4.653v1.383h-8.075c.11.828.438 1.492.985 1.992.555.5 1.254.75 2.098.75 1.304 0 2.324-.473 3.058-1.418l1.664 1.863c-.508.719-1.195 1.281-2.062 1.688-.868.398-1.828.597-2.883.597Zm-.387-10.406c-.672 0-1.219.227-1.64.68-.415.453-.68 1.101-.797 1.945h4.711v-.27c-.016-.75-.219-1.328-.61-1.734-.39-.414-.945-.621-1.664-.621Zm14.402 6.668c0-.414-.207-.738-.621-.973-.406-.242-1.062-.457-1.968-.644-3.016-.633-4.524-1.914-4.524-3.844 0-1.125.465-2.063 1.395-2.813.937-.757 2.16-1.136 3.668-1.136 1.609 0 2.894.379 3.855 1.136.969.758 1.453 1.743 1.453 2.954h-3.386c0-.485-.157-.883-.469-1.196-.313-.32-.801-.48-1.465-.48-.57 0-1.012.129-1.324.387a1.22 1.22 0 0 0-.469.984c0 .375.176.68.527.914.36.227.961.426 1.805.598.844.164 1.555.351 2.133.562 1.789.656 2.683 1.793 2.683 3.41 0 1.157-.496 2.094-1.488 2.813-.992.71-2.273 1.066-3.844 1.066-1.062 0-2.007-.187-2.836-.562-.82-.383-1.464-.903-1.933-1.559-.469-.664-.703-1.379-.703-2.144h3.211c.031.601.254 1.062.668 1.382.414.32.968.48 1.664.48.648 0 1.136-.12 1.465-.362.335-.25.503-.575.503-.973Z"/><rect width="28" height="28" y="1.359" fill="#83D187" rx="4"/><path fill="#DDFFDF" d="M14.94 19.956h.878v2.403h-.878v-2.403ZM13.182 19.956h.878v2.403h-.878v-2.403Z"/><path fill="#DDFFDF" d="M17.459 7.359h-5.918a.44.44 0 0 0-.44.44v14.56h1.202v-2.842a.44.44 0 0 1 .44-.44h3.515a.44.44 0 0 1 .44.44v2.842h1.2V7.799a.44.44 0 0 0-.439-.44Zm-4.277 10.4a.44.44 0 1 1-.88 0v-.879a.44.44 0 0 1 .88 0v.88Zm0-2.636a.44.44 0 1 1-.88 0v-.88a.44.44 0 0 1 .88 0v.88Zm1.758 2.636a.44.44 0 0 1-.88 0v-.879a.44.44 0 0 1 .88 0v.88Zm0-2.636a.44.44 0 0 1-.88 0v-.88a.44.44 0 0 1 .88 0v.88Zm1.757 2.636a.44.44 0 0 1-.879 0v-.879a.44.44 0 1 1 .88 0v.88Zm0-2.636a.44.44 0 0 1-.879 0v-.88a.44.44 0 1 1 .88 0v.88Zm-3.515-2.637a.44.44 0 1 1-.88 0v-.88a.44.44 0 0 1 .88 0v.88Zm1.758 0a.44.44 0 0 1-.88 0v-.88a.44.44 0 0 1 .88 0v.88Zm1.757 0a.44.44 0 0 1-.879 0v-.88a.44.44 0 1 1 .88 0v.88Zm-3.515-2.637a.44.44 0 1 1-.88 0V8.97a.44.44 0 0 1 .88 0v.88Zm1.758 0a.44.44 0 0 1-.88 0V8.97a.44.44 0 0 1 .88 0v.88Zm1.757 0a.44.44 0 0 1-.879 0V8.97a.44.44 0 1 1 .88 0v.88ZM21.56 13.218h-2.783v9.14h2.784A.44.44 0 0 0 22 21.92v-8.261a.44.44 0 0 0-.44-.44Zm-.732 5.713a.44.44 0 0 1-.879 0v-.879a.44.44 0 0 1 .88 0v.88Zm0-2.637a.44.44 0 1 1-.879 0v-.879a.44.44 0 0 1 .88 0v.88ZM7.44 13.218a.44.44 0 0 0-.44.44v8.261c0 .243.197.44.44.44h2.783v-9.14H7.439Zm1.61 5.713a.44.44 0 0 1-.878 0v-.879a.44.44 0 0 1 .879 0v.88Zm0-2.637a.44.44 0 0 1-.878 0v-.879a.44.44 0 0 1 .879 0v.88Z"/></svg>