<svg xmlns="http://www.w3.org/2000/svg" width="122" height="29" fill="none"><g clip-path="url(#a)"><path fill="#1D2130" d="M1.906 5.64v5.6c0 .92 0 1.951-1.906 1.951V16.2c1.906 0 1.906 1.031 1.906 1.95v5.6c0 4.347 2.381 4.663 6.43 4.663v-3.38c-1.905 0-2.62-.282-2.62-1.366v-5.545c0-1.28.089-2.618-1.03-3.427 1.119-.808 1.03-2.146 1.03-3.427V5.724c0-1.083.715-1.365 2.62-1.365V.978c-4.049 0-6.43.315-6.43 4.662Zm10.716-.182c-1.042.88-1.562 2.144-1.562 3.79v1.479H8.885v3.09h2.175v11.197h4.726V13.816h2.928v-3.09h-2.928V9.672c0-.537.158-.95.474-1.241.316-.29.767-.435 1.353-.435L19.37 8V4.415s-2.624-.029-2.999-.029c-1.14 0-2.708.192-3.75 1.072Zm8.827 2.53h4.727V4.415h-4.727v3.573Zm0 17.027h4.727V10.726h-4.727v14.289ZM37.83 10.462c-.892 0-1.701.2-2.426.601a5.35 5.35 0 0 0-1.826 1.67l-.181-2.007h-4.42v14.288h4.698V14.742c.242-.265.532-.473.871-.621.34-.148.728-.225 1.165-.225.697 0 1.225.17 1.582.508.358.34.537.917.537 1.737v8.874h4.713v-8.86c0-1.982-.416-3.425-1.248-4.333-.831-.906-1.987-1.36-3.465-1.36Zm18.965 7.508c-.887-.682-2.252-1.196-4.092-1.54-1.171-.21-1.95-.448-2.335-.713-.386-.263-.58-.585-.58-.963 0-.397.168-.72.502-.977.335-.255.749-.384 1.241-.384.67 0 1.155.146 1.457.437.302.29.454.717.454 1.28h4.573l.028-.079c.056-1.348-.51-2.444-1.7-3.294-1.191-.85-2.79-1.275-4.798-1.275-1.906 0-3.416.438-4.532 1.314-1.115.877-1.672 1.943-1.672 3.201 0 1.188.446 2.127 1.338 2.813.892.687 2.217 1.193 3.974 1.519 1.115.22 1.884.468 2.307.745.424.278.635.594.635.944 0 .431-.163.765-.488.997-.326.233-.804.351-1.436.351-.762 0-1.35-.15-1.764-.45-.414-.298-.63-.787-.648-1.465h-4.267l-.027.08c-.056 1.215.513 2.316 1.708 3.3 1.194.987 2.819 1.48 4.873 1.48 1.98 0 3.571-.416 4.775-1.249 1.205-.832 1.806-1.89 1.806-3.176 0-1.248-.444-2.214-1.332-2.896Zm16.824 1.036h-.084l-2.481-8.278h-2.97l-2.454 8.345h-.084l-1.66-8.345h-4.35l3.556 14.287h3.975l2.467-7.58h.083l2.455 7.58h3.987l3.542-14.287h-4.35l-1.632 8.278Zm13.983-8.544c-2.24-.008-3.963.676-5.166 2.054-1.205 1.377-1.807 3.154-1.807 5.328v.502c0 1.99.663 3.645 1.986 4.965 1.325 1.322 3.099 1.981 5.32 1.981 1.2 0 2.322-.151 3.368-.455 1.045-.304 1.899-.684 2.558-1.142l-1.115-2.72c-.818.326-1.495.554-2.03.687-.534.133-1.248.198-2.14.198-.883 0-1.59-.235-2.12-.706-.53-.472-.845-1.073-.948-1.803l.03-.08h8.615v-2.338c0-1.99-.581-3.565-1.743-4.728-1.16-1.162-2.764-1.743-4.808-1.743Zm1.952 6.023h-4.058l-.041-.066c.074-.766.281-1.378.621-1.836.338-.457.848-.686 1.527-.686.669 0 1.16.194 1.478.58.316.388.474.943.474 1.665v.343Zm13.863-6.023c-2.241-.008-3.962.676-5.167 2.054-1.203 1.377-1.806 3.154-1.806 5.328v.502c0 1.99.663 3.645 1.988 4.965 1.325 1.322 3.097 1.981 5.318 1.981 1.2 0 2.323-.151 3.369-.455 1.046-.304 1.898-.684 2.558-1.142l-1.115-2.72c-.818.326-1.494.554-2.029.687-.536.133-1.249.198-2.141.198-.883 0-1.589-.235-2.119-.706-.531-.472-.846-1.073-.949-1.803l.028-.08h8.617v-2.338c0-1.99-.581-3.565-1.743-4.728-1.162-1.162-2.764-1.743-4.809-1.743Zm1.951 6.023h-4.056l-.042-.066c.075-.766.281-1.378.62-1.836.338-.457.848-.686 1.527-.686.669 0 1.162.194 1.479.58.317.388.474.943.474 1.665v.343h-.002Zm14.283 4.824c-.585 0-1.037-.145-1.353-.436-.315-.29-.474-.705-.474-1.241v-5.79h2.452V10.75h-2.452V4.392h-4.726v6.358h-2.176v3.091h2.176v6.215c0 1.646.52 2.91 1.561 3.79 1.04.882 2.607 1.072 3.75 1.072.376 0 2.999-.028 2.999-.028v-3.586l-1.757.005Z"/></g><defs><clipPath id="a"><path fill="#fff" d="M0 .5h122v28H0z"/></clipPath></defs></svg>